<svg id="Capa_1" enable-background="new 0 0 511.447 511.447" height="512" viewBox="0 0 511.447 511.447" width="512" xmlns="http://www.w3.org/2000/svg">
<g>
<path fill="white" d="m370.113 41.887h-190.372l-43.607-34.21h-136.134v332.163c0 17.38 13.626 32.071 31 32.547 18.025.494 32.793-13.97 32.793-31.884v-234.823h306.321v-63.793z"/>
<circle fill="white" cx="308.444" cy="300.755" r="86.718"/>
<path fill="white" d="m308.444 184.037c38.253 0 72.265 18.498 93.565 47.018v-95.375h-308.217v204.823c0 11.66-3.245 22.575-8.873 31.896h131.447c-15.433-19.79-24.641-44.661-24.641-71.645.001-64.358 52.36-116.717 116.719-116.717z"/>
<path fill="white" d="m411.339 355.803c-10.892 20.278-27.602 36.982-47.885 47.867l100.112 100.1 47.88-47.872z"/></g></svg>